<?xml version="1.0" standalone="no"?>
<!DOCTYPE svg PUBLIC "-//W3C//DTD SVG 20010904//EN"
 "http://www.w3.org/TR/2001/REC-SVG-20010904/DTD/svg10.dtd">
<svg version="1.0" xmlns="http://www.w3.org/2000/svg"
 width="152.000000pt" height="172.000000pt" viewBox="0 0 152.000000 172.000000"
 preserveAspectRatio="xMidYMid meet">

<g transform="translate(0.000000,172.000000) scale(0.100000,-0.100000)"
fill="#000000" stroke="none">
<path d="M511 1236 l-233 -484 133 -244 c73 -133 164 -303 203 -376 l71 -132
85 2 84 3 137 270 c75 149 141 269 146 268 4 -1 33 -49 63 -107 l55 -106 108
0 c59 0 107 3 107 7 0 6 -224 444 -262 511 -10 19 -35 65 -54 104 l-36 71
-130 -259 c-169 -334 -225 -438 -230 -427 -3 4 -58 105 -122 224 l-116 216
121 248 c71 145 124 244 130 238 5 -5 46 -81 92 -170 l83 -162 54 109 54 109
-71 138 c-40 76 -105 203 -146 283 -42 79 -79 146 -84 147 -5 2 -114 -215
-242 -481z"/>
<path d="M210 618 c0 -3 -34 -76 -75 -162 l-74 -156 114 0 115 0 24 48 24 47
-55 105 c-52 98 -73 132 -73 118z"/>
</g>
</svg>
